<svg xmlns="http://www.w3.org/2000/svg" xmlns:xlink="http://www.w3.org/1999/xlink" version="1.1" data-diagram-type="DESCRIPTION" style="width:545px;height:375px;background:#FFFFFF;" width="545px" height="375px" viewBox="0 0 545 375" zoomAndPan="magnify" preserveAspectRatio="none" contentStyleType="text/css"><?plantuml 1.2026.8?><defs/><g font-family="sans-serif" lengthAdjust="spacing"><!--cluster Mwangaza Track--><g class="cluster" data-qualified-name="Mwangaza Track" id="ent0005" data-source-line="8"><rect x="114" y="34" width="417" height="223" fill="none" style="stroke:#0B2545;stroke-width:1;"/><text x="271.178" y="47.625" fill="#0B2545" font-size="12" textLength="102.645" font-weight="700" font-family="Inter">Mwangaza Track</text></g><!--entity UC1--><g class="entity" data-qualified-name="Mwangaza Track.UC1" id="ent0006" data-source-line="9"><ellipse cx="208.412" cy="83.782" rx="69.412" ry="16.282" fill="#DDF3F5" style="stroke:#0B2545;stroke-width:0.5;"/><text x="152.798" y="87.542" fill="#1B2430" font-size="12" textLength="111.229" font-family="Inter">Suivre une livraison</text></g><!--entity UC2--><g class="entity" data-qualified-name="Mwangaza Track.UC2" id="ent0007" data-source-line="10"><ellipse cx="208.735" cy="152.847" rx="72.235" ry="16.847" fill="#DDF3F5" style="stroke:#0B2545;stroke-width:0.5;"/><text x="149.778" y="156.607" fill="#1B2430" font-size="12" textLength="117.914" font-family="Inter">Planifier une tournée</text></g><!--entity UC3--><g class="entity" data-qualified-name="Mwangaza Track.UC3" id="ent0008" data-source-line="11"><ellipse cx="208.416" cy="223.083" rx="78.416" ry="18.083" fill="#DDF3F5" style="stroke:#0B2545;stroke-width:0.5;"/><text x="142.31" y="226.843" fill="#1B2430" font-size="12" textLength="132.211" font-family="Inter">Confirmer une livraison</text></g><!--entity UC4--><g class="entity" data-qualified-name="Mwangaza Track.UC4" id="ent0009" data-source-line="12"><ellipse cx="459.526" cy="178.005" rx="55.526" ry="13.505" fill="#DDF3F5" style="stroke:#0B2545;stroke-width:0.5;"/><text x="421.56" y="181.765" fill="#1B2430" font-size="12" textLength="75.932" font-family="Inter">S'authentifier</text></g><!--entity Client--><g class="entity" data-qualified-name="Client" id="ent0001" data-source-line="3"><ellipse cx="36.295" cy="14" rx="8" ry="8" fill="#FFF" style="stroke:#0B2545;stroke-width:0.5;"/><path d="M36.295,22 L36.295,49 M23.295,30 L49.295,30 M36.295,49 L23.295,64 M36.295,49 L49.295,64" style="stroke:#0B2545;stroke-width:0.5;" fill="none"/><text x="20" y="77.125" fill="#1B2430" font-size="12" textLength="32.59" font-family="Inter">Client</text></g><!--entity Dispatcher--><g class="entity" data-qualified-name="Dispatcher" id="ent0002" data-source-line="4"><ellipse cx="36.688" cy="124" rx="8" ry="8" fill="#FFF" style="stroke:#0B2545;stroke-width:0.5;"/><path d="M36.688,132 L36.688,159 M23.688,140 L49.688,140 M36.688,159 L23.688,174 M36.688,159 L49.688,174" style="stroke:#0B2545;stroke-width:0.5;" fill="none"/><text x="6" y="187.125" fill="#1B2430" font-size="12" textLength="61.377" font-family="Inter">Dispatcher</text></g><!--entity Chauffeur--><g class="entity" data-qualified-name="Chauffeur" id="ent0003" data-source-line="5"><ellipse cx="36.594" cy="234" rx="8" ry="8" fill="#FFF" style="stroke:#0B2545;stroke-width:0.5;"/><path d="M36.594,242 L36.594,269 M23.594,250 L49.594,250 M36.594,269 L23.594,284 M36.594,269 L49.594,284" style="stroke:#0B2545;stroke-width:0.5;" fill="none"/><text x="8" y="297.125" fill="#1B2430" font-size="12" textLength="57.188" font-family="Inter">Chauffeur</text></g><!--entity SMS--><g class="entity" data-qualified-name="SMS" id="ent0004" data-source-line="6"><ellipse cx="459.664" cy="295.52" rx="8" ry="8" fill="#FFF" style="stroke:#0B2545;stroke-width:0.5;"/><path d="M459.664,303.52 L459.664,330.52 M446.664,311.52 L472.664,311.52 M459.664,330.52 L446.664,345.52 M459.664,330.52 L472.664,345.52" style="stroke:#0B2545;stroke-width:0.5;" fill="none"/><text x="423.5" y="358.645" fill="#1B2430" font-size="12" textLength="72.328" font-family="Inter">Service SMS</text><text x="428.838" y="284.125" fill="#1B2430" font-size="12" textLength="61.652" font-style="italic" font-family="Inter">«système»</text></g><!--link Client to UC1--><g class="link" data-entity-1="ent0001" data-entity-2="ent0006" id="lnk10" data-source-line="15" data-link-type="dependency"><path d="M53.19,46.78 C77.03,52.53 118.509,62.538 154.209,71.148" style="stroke:#0B2545;stroke-width:1;" fill="none" id="Client-to-UC1"/><polygon points="159.07,72.32,151.259,66.321,154.209,71.148,149.383,74.098,159.07,72.32" fill="#0B2545" style="stroke:#0B2545;stroke-width:1;stroke-linejoin:miter;stroke-miterlimit:10;"/></g><!--link Dispatcher to UC2--><g class="link" data-entity-1="ent0002" data-entity-2="ent0007" id="lnk11" data-source-line="16" data-link-type="dependency"><path d="M67.11,153 C86.23,153 106.98,153 131.2,153" style="stroke:#0B2545;stroke-width:1;" fill="none" id="Dispatcher-to-UC2"/><polygon points="136.2,153,127.2,149,131.2,153,127.2,157,136.2,153" fill="#0B2545" style="stroke:#0B2545;stroke-width:1;stroke-linejoin:miter;stroke-miterlimit:10;"/></g><!--link Chauffeur to UC3--><g class="link" data-entity-1="ent0003" data-entity-2="ent0008" id="lnk12" data-source-line="17" data-link-type="dependency"><path d="M65.19,256.48 C88.9,250.91 118.883,243.856 148.153,236.966" style="stroke:#0B2545;stroke-width:1;" fill="none" id="Chauffeur-to-UC3"/><polygon points="153.02,235.82,143.343,233.989,148.153,236.966,145.176,241.776,153.02,235.82" fill="#0B2545" style="stroke:#0B2545;stroke-width:1;stroke-linejoin:miter;stroke-miterlimit:10;"/></g><!--link UC2 to UC4--><g class="link" data-entity-1="ent0007" data-entity-2="ent0009" id="lnk13" data-source-line="18" data-link-type="dependency"><path d="M274.92,159.57 C316.42,163.73 364.345,168.55 402.685,172.4" style="stroke:#0B2545;stroke-width:1;stroke-dasharray:7,7;" fill="none" id="UC2-to-UC4"/><polygon points="407.66,172.9,399.105,168.021,402.685,172.4,398.305,175.981,407.66,172.9" fill="#0B2545" style="stroke:#0B2545;stroke-width:1;stroke-linejoin:miter;stroke-miterlimit:10;"/><text x="318" y="161.625" fill="#0B7C86" font-size="12" textLength="55.178" font-family="Inter">«include»</text></g><!--link UC3 to UC4--><g class="link" data-entity-1="ent0008" data-entity-2="ent0009" id="lnk14" data-source-line="19" data-link-type="dependency"><path d="M271.63,212.24 C302.44,206.85 340.2,200.18 374,194 C387.51,191.53 397.318,189.704 410.618,187.174" style="stroke:#0B2545;stroke-width:1;stroke-dasharray:7,7;" fill="none" id="UC3-to-UC4"/><polygon points="415.53,186.24,405.941,183.992,410.618,187.174,407.436,191.851,415.53,186.24" fill="#0B2545" style="stroke:#0B2545;stroke-width:1;stroke-linejoin:miter;stroke-miterlimit:10;"/><text x="318" y="190.625" fill="#0B7C86" font-size="12" textLength="55.178" font-family="Inter">«include»</text></g><!--link UC3 to SMS--><g class="link" data-entity-1="ent0008" data-entity-2="ent0004" id="lnk15" data-source-line="20" data-link-type="dependency"><path d="M250.06,238.31 C298.15,256.47 372.852,284.664 418.522,301.904" style="stroke:#0B2545;stroke-width:1;" fill="none" id="UC3-to-SMS"/><polygon points="423.2,303.67,416.193,296.749,418.522,301.904,413.367,304.234,423.2,303.67" fill="#0B2545" style="stroke:#0B2545;stroke-width:1;stroke-linejoin:miter;stroke-miterlimit:10;"/></g><?plantuml-src VP51JiCm44NtFiMG3QkcekqALTcasqf8WGECt74pmh4hUrm4YFl0ENendE12OO5aoJFplx-jvojssgOTGLtFyvAU1fhh7eDGVKY3LPQCW7W8lEy5TXn82tkdK8iFq5ec9wNPS3oWw9x2MUqn6KFft5STXIDhWcxRLO1nt66zZizHJky3DOrIOpowlIMeja-vm1U4-u3wiO9N1P0YQOnPx18V0q5o13PNoD6xAVAXlRdqtLbqR9Z2P1MVWZjzK74kBfsjTuR3K9n_GvU_Bh_6b4avcPABOwNUbFhY0RDPCptaXqWPBTGtap9PgZpDzCTw1RSPH_cHJ2Eh_oZZ-Gpm4m00?></g></svg>